<svg width="241" height="226" viewBox="0 0 241 226" fill="none" xmlns="http://www.w3.org/2000/svg">
<path d="M222.446 82.7207L49.6131 4.04439C45.0445 1.96505 40.0225 1.06321 35.0107 1.42212C29.9989 1.78102 25.1588 3.3891 20.9372 6.09792L13.7025 10.7402C9.50257 13.4345 6.04895 17.132 3.65715 21.4949C1.26535 25.8578 0.0116529 30.7469 0.0106209 35.7155V190.154C0.00950067 195.121 1.26016 200.009 3.64839 204.372C6.03662 208.735 9.48633 212.433 13.6825 215.13L22.4568 220.767C26.7492 223.526 31.6813 225.145 36.7823 225.471C41.8834 225.796 46.9833 224.817 51.5953 222.626L222.753 141.318C227.735 138.951 231.961 135.26 234.963 130.653C237.965 126.046 239.625 120.703 239.759 115.216L239.875 110.459C240.016 104.648 238.44 98.9241 235.342 93.9941C232.244 89.0642 227.761 85.1448 222.446 82.7207ZM38.8048 194.095L31.4065 189.338V30.1179L211.478 112.073L38.8048 194.095Z" fill="url(#paint0_linear)"/>
<g style="mix-blend-mode:color-burn">
<path d="M222.299 82.7217L49.4855 4.04531C44.9169 1.96597 39.8949 1.06413 34.8831 1.42303C29.8713 1.78193 25.0312 3.39001 20.8096 6.09884L13.5748 10.7411C10.4303 12.7596 7.6948 15.3469 5.5105 18.3685L238.001 124.205C239.006 121.31 239.556 118.279 239.632 115.217L239.747 110.46C239.886 104.647 238.307 98.9213 235.206 93.9911C232.105 89.0609 227.617 85.1428 222.299 82.7217Z" fill="#485AF7"/>
</g>
<defs>
<linearGradient id="paint0_linear" x1="168.656" y1="26.6372" x2="-3.0723" y2="199.403" gradientUnits="userSpaceOnUse">
<stop stop-color="#B4EEFA"/>
<stop offset="0.32" stop-color="#5DDBEC"/>
<stop offset="0.62" stop-color="#51CCE8"/>
<stop offset="1" stop-color="#38ABE0"/>
</linearGradient>
</defs>
</svg>
